<?xml version="1.0" encoding="utf-8"?>
<!-- Generator: Adobe Illustrator 22.1.0, SVG Export Plug-In . SVG Version: 6.00 Build 0)  -->
<svg version="1.1" id="Layer_1" xmlns="http://www.w3.org/2000/svg" xmlns:xlink="http://www.w3.org/1999/xlink" x="0px" y="0px"
	 viewBox="0 0 792 612" style="enable-background:new 0 0 792 612;" xml:space="preserve">
<style type="text/css">
	.st0{fill:#2A2B2A;}
	.st1{fill:none;stroke:#010101;stroke-miterlimit:10;}
	.st2{fill:none;stroke:#FFFFFF;stroke-width:2;stroke-miterlimit:10;stroke-dasharray:5,7;}
	.st3{fill-rule:evenodd;clip-rule:evenodd;fill:#FFFFFF;stroke:#2A2B2A;stroke-width:4;stroke-miterlimit:10;}
	.st4{fill-rule:evenodd;clip-rule:evenodd;fill:#2A2B2A;}
	.st5{fill-rule:evenodd;clip-rule:evenodd;fill:none;stroke:#2A2B2A;stroke-width:3;stroke-miterlimit:10;}
	.st6{fill-rule:evenodd;clip-rule:evenodd;fill:none;stroke:#2A2B2A;stroke-width:2;stroke-miterlimit:10;}
	.st7{fill:#CE0E2D;}
	.st8{fill:#8A2432;}
	.st9{fill:#FFFFFF;}
	.st10{fill:#FFFFFF;stroke:#FFFFFF;stroke-width:0.25;stroke-miterlimit:10;}
</style>
<g id="logo_5_">
	<g id="background_4_">
		<g id="main_bakground">
			<polygon class="st0" points="494.9,271.3 489.9,287.7 490.8,304.8 482.1,319.6 478.8,336.4 466.8,348.7 459.6,364.3 445,373.2 
				434.3,386.7 417.9,391.9 404.4,402.4 387.2,403.6 371.5,410.5 354.6,407.5 337.7,410.5 322,403.6 304.9,402.4 291.3,391.9 
				274.9,386.7 264.3,373.2 249.6,364.3 242.5,348.7 230.4,336.4 227.2,319.6 218.4,304.8 219.3,287.7 214.4,271.3 219.3,254.8 
				218.4,237.7 227.2,222.9 230.4,206.1 242.5,193.8 249.6,178.2 264.3,169.3 274.9,155.8 291.3,150.6 304.9,140.1 322,138.9 
				337.7,132 354.6,135 371.5,132 387.2,138.9 404.4,140.1 418,150.6 434.3,155.8 445,169.3 459.6,178.2 466.8,193.8 478.8,206.1 
				482.1,222.9 490.8,237.7 489.9,254.8 			"/>
			<polygon class="st1" points="494.9,271.3 489.9,287.7 490.8,304.8 482.1,319.6 478.8,336.4 466.8,348.7 459.6,364.3 445,373.2 
				434.3,386.7 417.9,391.9 404.4,402.4 387.2,403.6 371.5,410.5 354.6,407.5 337.7,410.5 322,403.6 304.9,402.4 291.3,391.9 
				274.9,386.7 264.3,373.2 249.6,364.3 242.5,348.7 230.4,336.4 227.2,319.6 218.4,304.8 219.3,287.7 214.4,271.3 219.3,254.8 
				218.4,237.7 227.2,222.9 230.4,206.1 242.5,193.8 249.6,178.2 264.3,169.3 274.9,155.8 291.3,150.6 304.9,140.1 322,138.9 
				337.7,132 354.6,135 371.5,132 387.2,138.9 404.4,140.1 418,150.6 434.3,155.8 445,169.3 459.6,178.2 466.8,193.8 478.8,206.1 
				482.1,222.9 490.8,237.7 489.9,254.8 			"/>
		</g>
		<g id="dotted_line">
			<polygon class="st2" points="486.2,271.3 482.4,286.8 482.4,302.7 475,316.9 471.1,332.4 460.5,344.4 453.1,358.5 440,367.6 
				429.4,379.6 414.4,385.2 401.3,394.3 385.4,396.2 370.5,401.9 354.6,400 338.8,401.9 323.8,396.2 307.9,394.3 294.8,385.2 
				279.9,379.5 269.3,367.6 256.1,358.5 248.7,344.4 238.1,332.4 234.2,316.9 226.8,302.7 226.8,286.8 223,271.3 226.8,255.7 
				226.8,239.8 234.2,225.6 238.1,210.1 248.7,198.1 256.1,184 269.3,174.9 279.9,163 294.8,157.3 307.9,148.2 323.8,146.3 
				338.8,140.6 354.6,142.6 370.5,140.6 385.4,146.3 401.3,148.2 414.4,157.3 429.4,163 440,174.9 453.1,184 460.5,198.1 
				471.1,210.1 475,225.6 482.4,239.8 482.4,255.7 			"/>
		</g>
	</g>
	<g id="lense_4_">
		<circle id="white_lense_bckgrnd" class="st3" cx="353" cy="271.4" r="88.3"/>
		<circle id="big_circle" class="st4" cx="329.2" cy="237.9" r="30.2"/>
		<circle id="small_circle" class="st4" cx="379.4" cy="301.7" r="14.7"/>
		<g id="left_reflect">
			<path class="st0" d="M336.2,320.6c-3.5-0.7-6.8-2-10.1-3.5c-3.2-1.5-6.3-3.4-9.2-5.5c-2.9-2.1-5.5-4.6-8-7.3
				c-1.2-1.4-2.3-2.8-3.3-4.3c-1.1-1.5-2-3-2.9-4.6c-1.7-3.1-3.4-6.3-4.7-9.7c-1.3-3.4-2.3-6.8-2.9-10.4c-1.3-7.1-0.7-14.4,1-21.3
				c-0.5,7.1-0.3,14.1,1.3,20.8c1.6,6.7,4.4,13.1,7.9,19.1c1.7,3,3.6,5.9,5.8,8.5c2.2,2.6,4.7,5,7.3,7.3c2.7,2.2,5.5,4.2,8.5,6
				C329.8,317.6,332.9,319.2,336.2,320.6z"/>
		</g>
		<g id="right_reflect">
			<path class="st0" d="M405.8,256.7c-1.4-4.1-3.1-8-5.1-11.7c-1-1.8-2.1-3.7-3.3-5.4c-1.2-1.7-2.5-3.4-3.8-4.9
				c-1.4-1.6-2.9-3-4.4-4.4c-1.6-1.4-3.2-2.6-5-3.9c-3.5-2.3-7.3-4.3-11.3-6c4.3,0.5,8.6,1.9,12.5,4c2,1,3.8,2.3,5.6,3.7
				c1.7,1.4,3.4,3,4.8,4.6c1.4,1.7,2.8,3.5,4,5.4c1.2,1.9,2.2,3.9,3,5.9C404.4,248,405.6,252.3,405.8,256.7z"/>
		</g>
		<circle id="inside_ring" class="st5" cx="352.2" cy="271.8" r="70"/>
		<circle id="outside_ring" class="st6" cx="353.2" cy="271.8" r="79.9"/>
	</g>
</g>
<g id="banner">
	<g id="side_banner">
		<g id="right">
			<polygon class="st7" points="483,334.6 539,334.6 531.2,356.9 539,380.6 483,380.6 			"/>
			<polygon class="st8" points="482.9,326.8 511.5,307.5 511.5,360.9 482.9,380.5 			"/>
		</g>
		<g id="left">
			<polygon class="st7" points="236.2,334.6 180.1,334.6 188.8,358.1 180.1,380.6 236.2,380.6 			"/>
			<polygon class="st8" points="236.3,326.8 207.7,307.5 207.7,360.9 236.3,380.5 			"/>
		</g>
	</g>
	<rect id="front_banner" x="207.7" y="307.5" class="st7" width="303.8" height="53.4"/>
</g>
<g id="text">
	<g>
		<path class="st9" d="M311.5,320.1c0.5,0,0.9,0.1,1.3,0.3s0.5,0.5,0.6,0.7c0.1,0.3,0,0.5-0.2,0.7s-0.5,0.3-0.9,0.4
			c-1,0.1-1.9,0.5-2.7,1.1c-0.8,0.6-1.6,1.4-2.3,2.3c-0.7,0.9-1.4,1.9-2,2.9c-0.6,1.1-1.1,2.1-1.6,3.1c-0.4,0.8-0.8,1.7-1.2,2.6
			c-0.4,0.9-0.9,1.8-1.3,2.7c-1,1.9-2.1,3.7-3.2,5.6c-1.1,1.8-2.4,3.5-3.8,4.9c-1.4,1.4-3.1,2.6-5,3.5c-1.9,0.9-4.1,1.4-6.7,1.4
			c-1.3,0-2.6-0.2-4-0.5c-1.4-0.3-2.6-0.8-3.7-1.4c-1.1-0.6-2.1-1.3-2.9-2.2c-0.8-0.8-1.2-1.7-1.4-2.7c0-0.5,0.2-0.9,0.4-1.3
			c0.2-0.3,0.5-0.6,0.9-0.9c0.4-0.2,0.8-0.4,1.2-0.5c0.4-0.1,0.9-0.2,1.3-0.2c0.7,0,1.3,0.1,1.9,0.4c0.6,0.3,1,0.6,1.1,1.1
			c0.1,0.3,0.1,0.6,0,0.9c-0.1,0.3-0.4,0.7-0.8,1c-0.1,0.1-0.2,0.3-0.2,0.6s0,0.6,0.1,0.9c0.6,0.6,1.3,1,2.2,1.4s1.8,0.5,2.8,0.6
			c1.2,0,2.4-0.3,3.4-1c1-0.7,1.9-1.5,2.8-2.6c0.9-1.1,1.7-2.3,2.4-3.7c0.7-1.4,1.5-2.8,2.2-4.3l1.9-3.5c1-1.8,2-3.6,3-5.3
			c1.1-1.8,2.3-3.3,3.6-4.7c1.4-1.4,2.9-2.5,4.6-3.3C307.3,320.3,309.3,320,311.5,320.1z M284.8,337c0.6-0.1,1.1-0.1,1.5,0.2
			c0.4,0.2,0.7,0.5,0.8,0.8c0.1,0.2,0.1,0.5-0.1,0.7s-0.4,0.4-0.8,0.6c-1.1,0.4-2.2,0.5-3.5,0.5c-1.2,0-2.4-0.2-3.7-0.6
			c-1.2-0.4-2.4-0.9-3.5-1.5c-1.1-0.6-2-1.4-2.8-2.3c-0.8-0.9-1.4-1.8-1.7-2.8c-0.4-1.6-0.3-3.1,0.3-4.6c0.6-1.5,1.6-2.9,2.9-4.2
			s2.9-2.5,4.9-3.6c1.9-1.1,4-2.1,6.3-2.9c2.3-0.8,4.7-1.4,7.3-1.9c2.5-0.4,5.1-0.7,7.6-0.7h1.1c3.1,0.1,5.9,0.3,8.5,0.7
			s4.9,1,7,1.8c2,0.8,3.8,1.8,5.3,2.9c1.5,1.2,2.6,2.5,3.3,4.1c0.5,1.5,0.5,2.9,0.1,4.1c-0.4,1.3-1.2,2.3-2.3,3.3
			c-1.1,0.9-2.5,1.6-4.2,2.1c-1.7,0.5-3.6,0.8-5.7,0.8c-2.2,0-4.3-0.2-6.4-0.7c-0.4-0.1-0.6-0.3-0.8-0.6c-0.2-0.3-0.3-0.5-0.3-0.8
			c0-0.3,0-0.5,0.2-0.7c0.1-0.2,0.3-0.2,0.7-0.2c1.2,0.3,2.4,0.4,3.5,0.4c1.4,0,2.7-0.2,3.9-0.5c1.2-0.3,2.3-0.8,3.1-1.4
			c0.8-0.6,1.4-1.3,1.8-2.2s0.3-1.8,0-2.9c-0.4-1-1-2-2-3c-1-1-2.2-1.8-3.6-2.6c-1.4-0.8-3.1-1.4-4.9-1.8c-1.8-0.4-3.8-0.7-6-0.7
			c-2.3,0-4.5,0.2-6.6,0.6c-2.1,0.4-4.1,1-5.9,1.7c-1.8,0.7-3.5,1.6-5,2.6c-1.5,1-2.7,2.1-3.8,3.2c-1,1.2-1.8,2.4-2.3,3.7
			s-0.7,2.5-0.6,3.8c0.1,0.4,0.3,0.9,0.6,1.4c0.3,0.5,0.7,1,1.1,1.4s1,0.8,1.6,1.1c0.6,0.3,1.2,0.4,1.9,0.4
			C284.1,337.1,284.4,337.1,284.8,337L284.8,337z"/>
		<path class="st9" d="M327.1,336.4c0.2,0.6,0.2,1.3,0,2.1c-0.2,0.8-0.5,1.6-0.8,2.3c0.1,0,0.2,0,0.3,0c0.5,0,1-0.2,1.5-0.5
			c0.5-0.3,1-0.8,1.5-1.3c0.2-0.2,0.4-0.3,0.8-0.3c0.4,0.1,0.7,0.2,1.1,0.4c0.4,0.2,0.6,0.5,0.8,0.8c0.2,0.3,0.2,0.5,0.1,0.8
			c-0.9,1.1-1.7,1.8-2.6,2.2c-0.9,0.4-1.7,0.5-2.6,0.5c-0.7,0-1.4-0.1-2-0.3c-0.2,0.3-0.4,0.5-0.5,0.8c-0.2,0.2-0.4,0.5-0.5,0.6
			c-0.6,0.6-1.2,1.2-2,1.8c-0.8,0.6-1.6,1.1-2.5,1.6c-0.9,0.5-1.8,0.9-2.8,1.2c-1,0.3-1.9,0.4-2.8,0.4c-0.8,0-1.5-0.2-2.1-0.4
			c-0.6-0.2-1.1-0.5-1.6-0.9c-0.5-0.4-0.8-0.8-1.2-1.2c-0.3-0.4-0.5-0.8-0.7-1.2c-0.3-1.2-0.1-2.5,0.4-3.8c0.6-1.3,1.4-2.5,2.5-3.6
			c1.1-1.1,2.3-2,3.8-2.8c1.4-0.8,2.9-1.2,4.4-1.3c0.3,0,0.7,0.1,1,0.1s0.7,0.1,1.1,0.2c0.6-0.5,1.3-0.7,1.9-0.7
			c1,0,1.8,0.2,2.3,0.7C326.5,335.1,326.9,335.7,327.1,336.4z M317.4,344.7c0.4,0,0.9-0.1,1.3-0.3c0.4-0.2,0.9-0.4,1.3-0.8
			c0.4-0.3,0.8-0.7,1.2-1.1c0.4-0.4,0.7-0.8,1.1-1.3c-0.3-0.3-0.5-0.7-0.8-1c-0.2-0.4-0.4-0.8-0.5-1.2c-0.1-0.2-0.2-0.5-0.2-0.7
			c-0.1-0.2-0.1-0.5-0.2-0.7c-0.5,0.1-1,0.4-1.4,0.7c-0.5,0.3-0.9,0.7-1.3,1.1c-0.4,0.4-0.7,0.8-0.9,1.2c-0.3,0.4-0.5,0.8-0.7,1.3
			c-0.2,0.4-0.3,0.8-0.3,1.2s0,0.7,0.1,0.9c0.1,0.2,0.2,0.4,0.4,0.6C316.6,344.6,316.9,344.7,317.4,344.7z M324.3,336.6
			c-0.1,0-0.2,0.2-0.3,0.4c-0.1,0.2-0.1,0.5-0.2,0.7c0.1-0.1,0.1-0.3,0.2-0.6S324.2,336.7,324.3,336.6z"/>
		<path class="st9" d="M338.5,344.3c-0.1,0.3-0.1,0.5,0.1,0.5c0.1,0,0.2-0.1,0.5-0.2c0.2-0.1,0.5-0.3,0.8-0.5
			c0.3-0.2,0.7-0.5,1.1-0.8c0.4-0.3,0.8-0.7,1.1-1.1l2.7-3.3c0.3-0.2,0.6-0.4,1.1-0.4c0.3,0,0.6,0.1,0.9,0.2
			c0.3,0.1,0.5,0.3,0.7,0.5c0.2,0.2,0.3,0.4,0.4,0.6c0.1,0.2,0,0.5-0.2,0.7l-0.7,0.8c-0.4,0.5-0.8,1-1.3,1.6
			c-0.4,0.6-0.9,1.1-1.4,1.6c-0.5,0.6-1.1,1.1-1.8,1.7c-0.7,0.6-1.4,1.1-2.1,1.6c-0.7,0.5-1.5,0.9-2.3,1.2c-0.8,0.3-1.5,0.4-2.3,0.4
			c-0.9,0-1.7-0.2-2.4-0.6s-1.2-0.9-1.5-1.5c-0.4-0.8-0.4-1.6-0.1-2.3s0.6-1.5,1-2.2l0,0l0.2-0.3c0.2-0.3,0.3-0.6,0.5-0.9
			c0.1-0.3,0.2-0.6,0.3-0.8c0.1-0.3,0.1-0.6,0-0.9c0-0.1-0.1-0.2-0.2-0.4l-0.2,0.2v0l-0.1,0.1l-0.2,0.2l-0.7,0.8
			c-0.4,0.5-0.8,0.7-1.3,0.7c-0.4,0-0.8-0.1-1.1-0.3c-0.3-0.2-0.6-0.5-0.7-0.8c-0.2-0.4-0.1-0.9,0.4-1.3c0.4-0.5,0.7-0.9,0.9-1.3
			c0.2-0.4,0.1-0.8-0.2-1.2l-0.1-0.2l-0.1-0.2v0.1c-0.1-0.1-0.1-0.2-0.2-0.4c-0.1-0.1-0.1-0.3-0.2-0.4c0-0.1-0.1-0.3-0.1-0.5
			c0-0.2,0-0.4,0.1-0.6c0.1-0.2,0.2-0.5,0.4-0.7c0.2-0.3,0.5-0.5,0.9-0.8c0.7-0.4,1.3-0.6,2-0.6c0.8,0,1.4,0.2,1.9,0.6
			c0.5,0.4,0.8,0.9,0.9,1.4c0,0,0,0.1,0,0.2c0,0.1,0,0.2,0,0.3s0,0.2,0,0.3s0,0.1,0,0.1c0,0,0,0,0,0.1c0,0,0,0,0,0.1
			c0,0.1,0,0.2,0.1,0.3c0.1,0.1,0.3,0.3,0.6,0.6c0.1,0,0.1,0,0.1,0.1c0,0,0,0,0.1,0l0.7,0.5v0c0.5,0.4,0.9,0.7,1.3,1
			c0.4,0.3,0.7,0.6,0.9,0.9c0.3,0.3,0.5,0.7,0.6,1c0.1,0.3,0.1,0.6,0.1,0.9c0,0.3-0.1,0.6-0.3,0.9c-0.1,0.3-0.3,0.6-0.4,0.9
			l-0.3,0.5C338.8,343.4,338.6,343.9,338.5,344.3z"/>
		<path class="st9" d="M348.4,331.7c-0.7,0-1.3-0.1-1.7-0.4c-0.4-0.2-0.6-0.5-0.7-0.9c-0.1-0.4-0.1-0.8,0.3-1.1
			c0.3-0.3,0.9-0.5,1.6-0.5h2.2l0.1-0.1v0l0.8-1.4l0.8-1.4c0.3-0.5,0.7-0.8,1.2-0.9c0.5-0.1,1.1-0.2,1.9-0.1c0.8,0,1.5,0.2,2,0.3
			c0.5,0.2,0.8,0.4,1,0.8c0.1,0.3,0.1,0.7-0.2,1.2l-0.9,1.7h1.3c0.7,0,1.2,0.1,1.6,0.3c0.4,0.2,0.6,0.5,0.8,0.9
			c0.1,0.2,0.1,0.4,0,0.6s-0.1,0.4-0.3,0.6c-0.2,0.2-0.4,0.3-0.7,0.4c-0.3,0.1-0.6,0.1-1,0.1h-3.2c-0.6,1.2-1.2,2.4-1.9,3.7
			c-0.7,1.3-1.3,2.5-1.9,3.7c-0.6,1.2-1.1,2.2-1.5,3.1s-0.7,1.4-0.8,1.7c-0.1,0.2-0.1,0.3,0,0.5c0.1,0.1,0.2,0.2,0.4,0.3
			c0.4-0.1,0.8-0.3,1.3-0.5c0.5-0.2,0.9-0.5,1.3-0.8s0.8-0.6,1.2-0.9c0.4-0.3,0.6-0.6,0.8-0.8l2.1-2.7c0.3-0.2,0.5-0.3,0.8-0.4
			c0.3,0,0.6,0,0.8,0.1c0.2,0.1,0.5,0.3,0.7,0.5c0.2,0.2,0.4,0.4,0.4,0.7c0.1,0.5,0.1,0.8,0,1l-0.6,0.6c-0.3,0.4-0.7,0.9-1,1.4
			c-0.4,0.5-0.8,0.9-1.2,1.3c-1.2,1.2-2.3,2.1-3.3,2.8c-1,0.7-1.9,1.3-2.7,1.7c-0.8,0.4-1.6,0.6-2.2,0.8c-0.7,0.1-1.3,0.2-1.8,0.1
			c-0.6,0-1.2-0.2-1.7-0.4c-0.5-0.2-0.9-0.5-1.3-0.8s-0.6-0.7-0.8-1c-0.2-0.3-0.3-0.6-0.3-0.9c-0.1-0.6,0-1.4,0.4-2.5
			s0.8-2.3,1.5-3.7s1.3-2.8,2.1-4.2C346.9,334.5,347.6,333,348.4,331.7z"/>
		<path class="st9" d="M365.3,344.3c-0.1,0.3-0.1,0.5,0.1,0.5c0.1,0,0.2-0.1,0.5-0.2c0.2-0.1,0.5-0.3,0.8-0.5
			c0.3-0.2,0.7-0.5,1.1-0.8c0.4-0.3,0.8-0.7,1.1-1.1l2.7-3.3c0.3-0.2,0.6-0.4,1.1-0.4c0.3,0,0.6,0.1,0.9,0.2
			c0.3,0.1,0.5,0.3,0.7,0.5c0.2,0.2,0.3,0.4,0.4,0.6c0.1,0.2,0,0.5-0.2,0.7l-0.7,0.8c-0.4,0.5-0.8,1-1.3,1.6
			c-0.4,0.6-0.9,1.1-1.4,1.6c-0.5,0.6-1.1,1.1-1.8,1.7c-0.7,0.6-1.4,1.1-2.1,1.6c-0.7,0.5-1.5,0.9-2.3,1.2c-0.8,0.3-1.5,0.4-2.3,0.4
			c-0.9,0-1.7-0.2-2.4-0.6s-1.2-0.9-1.5-1.5c-0.4-0.8-0.4-1.6-0.1-2.3s0.6-1.5,1-2.2l0,0l0.2-0.3c0.2-0.3,0.3-0.6,0.5-0.9
			c0.1-0.3,0.2-0.6,0.3-0.8c0.1-0.3,0.1-0.6,0-0.9c0-0.1-0.1-0.2-0.2-0.4l-0.2,0.2v0l-0.1,0.1l-0.2,0.2l-0.7,0.8
			c-0.4,0.5-0.8,0.7-1.3,0.7c-0.4,0-0.8-0.1-1.1-0.3c-0.3-0.2-0.6-0.5-0.7-0.8c-0.2-0.4-0.1-0.9,0.4-1.3c0.4-0.5,0.7-0.9,0.9-1.3
			c0.2-0.4,0.1-0.8-0.2-1.2l-0.1-0.2l-0.1-0.2v0.1c-0.1-0.1-0.1-0.2-0.2-0.4c-0.1-0.1-0.1-0.3-0.2-0.4c0-0.1-0.1-0.3-0.1-0.5
			c0-0.2,0-0.4,0.1-0.6c0.1-0.2,0.2-0.5,0.4-0.7c0.2-0.3,0.5-0.5,0.9-0.8c0.7-0.4,1.3-0.6,2-0.6c0.8,0,1.4,0.2,1.9,0.6
			c0.5,0.4,0.8,0.9,0.9,1.4c0,0,0,0.1,0,0.2c0,0.1,0,0.2,0,0.3s0,0.2,0,0.3s0,0.1,0,0.1c0,0,0,0,0,0.1c0,0,0,0,0,0.1
			c0,0.1,0,0.2,0.1,0.3c0.1,0.1,0.3,0.3,0.6,0.6c0.1,0,0.1,0,0.1,0.1c0,0,0,0,0.1,0l0.7,0.5v0c0.5,0.4,0.9,0.7,1.3,1
			c0.4,0.3,0.7,0.6,0.9,0.9c0.3,0.3,0.5,0.7,0.6,1c0.1,0.3,0.1,0.6,0.1,0.9c0,0.3-0.1,0.6-0.3,0.9c-0.1,0.3-0.3,0.6-0.4,0.9
			l-0.3,0.5C365.6,343.4,365.3,343.9,365.3,344.3z"/>
		<path class="st9" d="M394.7,344.1c-1.2,1.2-2.2,2.1-3.2,2.8c-1,0.7-1.9,1.3-2.7,1.7c-0.8,0.4-1.6,0.6-2.3,0.8
			c-0.7,0.1-1.3,0.2-1.9,0.1c-0.5,0-0.9-0.1-1.3-0.3s-0.7-0.4-1.1-0.6s-0.6-0.5-0.8-0.8c-0.2-0.3-0.4-0.6-0.5-0.8
			c-0.9,0.8-1.9,1.4-3,1.9c-1.1,0.5-2.2,0.8-3.3,0.7c-0.8,0-1.5-0.2-2.1-0.4c-0.6-0.2-1.2-0.5-1.6-0.9c-0.5-0.3-0.8-0.7-1.1-1.1
			s-0.5-0.8-0.6-1.2c-0.3-0.8-0.3-1.7-0.1-2.6c0.2-0.9,0.5-1.8,1-2.6c0.5-0.9,1.1-1.7,1.9-2.4c0.8-0.8,1.6-1.4,2.5-2s1.9-1,2.9-1.4
			c1-0.3,2-0.5,3-0.5c1.1,0,2,0.2,2.7,0.4c0.8,0.2,1.4,0.6,2,1c0.3-0.4,0.7-0.7,1.3-0.7c0.5-0.1,1.1-0.1,1.8-0.1
			c0.8,0,1.4,0.1,2,0.3c0.5,0.1,0.9,0.4,1,0.9c0.1,0.3,0,0.8-0.3,1.3c-0.1,0.2-0.2,0.5-0.3,0.7c-0.1,0.3-0.2,0.5-0.4,0.7v0
			c-0.5,0.9-0.9,1.8-1.4,2.8c-0.5,1-0.9,1.8-1.2,2.4c-0.1,0.2-0.1,0.4,0.1,0.5c0.2,0.1,0.3,0.2,0.5,0.2c0.4-0.1,0.8-0.3,1.3-0.6
			c0.5-0.2,0.9-0.5,1.4-0.8s0.8-0.6,1.2-0.9c0.4-0.3,0.6-0.6,0.8-0.8l2.1-2.7c0.4-0.3,0.8-0.4,1.2-0.4c0.3,0,0.6,0.1,0.9,0.2
			c0.3,0.1,0.5,0.3,0.7,0.5s0.3,0.4,0.3,0.7c0,0.3,0,0.5-0.2,0.8l-0.8,1l-0.3,0.3c-0.2,0.3-0.4,0.6-0.7,0.9
			C395.4,343.3,395.1,343.7,394.7,344.1z M377.7,344.7c1.2,0,2.6-1.2,4-3.6c0,0,0,0,0-0.1c0,0,0,0,0-0.1c0.2-0.4,0.4-0.8,0.6-1.2
			c0.2-0.4,0.3-0.8,0.4-1.1c0.1-0.3,0.1-0.6,0.1-0.8c0-0.2-0.1-0.3-0.2-0.3c-0.6-0.1-1.3-0.1-1.9,0.1c-0.6,0.2-1.2,0.5-1.6,0.8
			c-0.5,0.4-0.9,0.8-1.3,1.3s-0.7,1-1,1.5c-0.3,0.5-0.4,1-0.5,1.5c-0.1,0.5-0.1,0.9,0,1.2c0.1,0.2,0.3,0.4,0.5,0.6
			S377.4,344.7,377.7,344.7z"/>
		<path class="st9" d="M406.2,344.1c-1.2,1.2-2.2,2.1-3.2,2.8c-1,0.7-1.9,1.3-2.7,1.7c-0.8,0.4-1.6,0.6-2.2,0.8
			c-0.7,0.1-1.3,0.2-1.8,0.1c-0.6,0-1.2-0.2-1.7-0.5c-0.5-0.3-0.9-0.6-1.2-1c-0.3-0.4-0.6-0.7-0.8-1.1c-0.2-0.4-0.3-0.7-0.3-0.9
			c-0.1-1.3,0.1-2.6,0.6-3.8c0.6-1.2,1.3-2.6,2.1-4l1.3-2.2c0.3-0.5,0.7-0.8,1.2-0.9c0.5-0.1,1.2-0.1,1.9-0.1c0.8,0,1.4,0.1,2,0.3
			s0.9,0.4,1,0.9c0.1,0.1,0.1,0.3,0.1,0.6c0,0.2-0.1,0.5-0.2,0.7l-3.4,6.4l0,0c-0.1,0.2,0,0.4,0.2,0.5c0.2,0.1,0.4,0.2,0.6,0.3
			c0.4-0.1,0.8-0.3,1.3-0.6c0.5-0.2,0.9-0.5,1.4-0.8s0.8-0.6,1.2-0.9c0.4-0.3,0.6-0.6,0.8-0.8l2.1-2.7c0.3-0.2,0.6-0.3,1.1-0.3
			c0.4,0,0.8,0.1,1.1,0.3c0.3,0.2,0.5,0.5,0.6,0.8c0.1,0.5,0.1,0.8,0,1l-0.5,0.6c-0.3,0.4-0.7,0.9-1.1,1.4
			C407.1,343.2,406.7,343.7,406.2,344.1z M399.7,333.3c-0.6-0.4-1-0.9-1.1-1.5c-0.1-0.5-0.2-0.9,0-1.4s0.4-0.8,0.9-1.1h0
			c0.7-0.6,1.6-0.8,2.5-0.8c0.5,0,1,0.1,1.5,0.2c0.5,0.2,1,0.4,1.4,0.7c0.6,0.5,0.9,0.9,1.1,1.5c0.2,0.5,0.2,0.9,0.1,1.4
			c-0.1,0.5-0.4,0.9-0.8,1.2c-0.7,0.5-1.6,0.8-2.5,0.8C401.4,334.2,400.5,333.9,399.7,333.3z"/>
		<path class="st9" d="M409.9,331.7c-0.7,0-1.3-0.1-1.7-0.4c-0.4-0.2-0.6-0.5-0.7-0.9c-0.1-0.4-0.1-0.8,0.3-1.1
			c0.3-0.3,0.9-0.5,1.6-0.5h2.2l0.1-0.1v0l0.8-1.4l0.8-1.4c0.3-0.5,0.7-0.8,1.2-0.9c0.5-0.1,1.1-0.2,1.9-0.1c0.8,0,1.5,0.2,2,0.3
			c0.5,0.2,0.8,0.4,1,0.8c0.1,0.3,0.1,0.7-0.2,1.2l-0.9,1.7h1.3c0.7,0,1.2,0.1,1.6,0.3c0.4,0.2,0.6,0.5,0.8,0.9
			c0.1,0.2,0.1,0.4,0,0.6s-0.1,0.4-0.3,0.6s-0.4,0.3-0.7,0.4c-0.3,0.1-0.6,0.1-1,0.1h-3.2c-0.6,1.2-1.2,2.4-1.9,3.7
			c-0.7,1.3-1.3,2.5-1.9,3.7c-0.6,1.2-1.1,2.2-1.5,3.1s-0.7,1.4-0.8,1.7c-0.1,0.2-0.1,0.3,0,0.5c0.1,0.1,0.2,0.2,0.4,0.3
			c0.4-0.1,0.8-0.3,1.3-0.5c0.5-0.2,0.9-0.5,1.3-0.8s0.8-0.6,1.2-0.9c0.4-0.3,0.6-0.6,0.8-0.8l2.1-2.7c0.3-0.2,0.5-0.3,0.8-0.4
			c0.3,0,0.6,0,0.8,0.1s0.5,0.3,0.7,0.5c0.2,0.2,0.4,0.4,0.4,0.7c0.1,0.5,0.1,0.8,0,1l-0.6,0.6c-0.3,0.4-0.7,0.9-1,1.4
			s-0.8,0.9-1.2,1.3c-1.2,1.2-2.3,2.1-3.3,2.8c-1,0.7-1.9,1.3-2.7,1.7c-0.8,0.4-1.6,0.6-2.2,0.8s-1.3,0.2-1.8,0.1
			c-0.6,0-1.2-0.2-1.7-0.4c-0.5-0.2-0.9-0.5-1.3-0.8s-0.6-0.7-0.8-1c-0.2-0.3-0.3-0.6-0.3-0.9c-0.1-0.6,0-1.4,0.4-2.5
			s0.8-2.3,1.5-3.7s1.3-2.8,2.1-4.2C408.3,334.5,409.1,333,409.9,331.7z"/>
		<path class="st9" d="M417.2,340.5c0.1,0,0.2,0,0.3-0.1c0,0,0.1,0,0.4,0.1c-0.2-0.2-0.3-0.4-0.3-0.7s0.1-0.5,0.3-0.8
			c0.4-0.4,0.7-0.8,0.9-1.2c0.3-0.4,0.5-0.7,0.8-1.2c0.3-0.4,0.5-0.8,0.9-1.2s0.7-0.9,1.1-1.5c0.4-0.5,0.8-0.8,1.3-1
			c0.5-0.2,1-0.3,1.5-0.3c0.8,0,1.4,0.2,2,0.6c0.6,0.4,0.8,0.9,0.7,1.5c-0.1,0.2-0.3,0.3-0.5,0.3c-0.1,0-0.2,0.2-0.3,0.5
			c-0.1,0.3-0.1,0.7,0.1,1.4v0c0.1,0.5,0.3,1,0.5,1.5s0.4,1.1,0.7,1.5c0.2,0.4,0.4,0.8,0.6,1.2c0.2,0.4,0.3,0.8,0.5,1.3
			c0.1,0.2,0.1,0.4,0.2,0.5s0.1,0.3,0.2,0.5c0.5-0.3,1-0.7,1.4-1c0.4-0.3,0.8-0.7,1-1l2.1-2.7c0.3-0.2,0.6-0.4,1.1-0.4
			c0.3,0,0.6,0.1,0.9,0.2s0.5,0.3,0.7,0.5s0.3,0.4,0.3,0.7c0,0.3-0.1,0.5-0.2,0.8l-0.9,1.1c-0.3,0.4-0.6,0.8-0.9,1.1
			c-0.3,0.4-0.6,0.8-1,1.1c-1.1,1.1-2.2,2-3.3,2.7c-1,0.7-2,1.2-2.9,1.7c-0.6,0.4-1.4,0.7-2.2,0.9s-1.5,0.3-2.2,0.3
			c-1.2,0-2.2-0.1-3.2-0.4c-1-0.3-1.8-0.6-2.6-1.1s-1.4-0.9-1.8-1.5s-0.8-1.1-1-1.7c-0.4-1-0.3-1.9,0.2-2.8
			C414.7,341.4,415.7,340.8,417.2,340.5z M420.5,340.9c-0.1,0.1-0.2,0.2-0.4,0.3c0.6,0.3,1,0.6,1.2,0.9s-0.1,0.6-0.8,0.9
			c-0.4,0.1-0.6,0.4-0.8,0.6c-0.1,0.3-0.2,0.5-0.1,0.8c0.1,0.3,0.4,0.4,0.8,0.4c0.5,0,0.9-0.2,1.1-0.6c0.2-0.4,0.4-0.8,0.5-1.4
			s0.2-1.1,0.2-1.7c0-0.6,0-1.1-0.1-1.5c0-0.2,0-0.3,0-0.5s-0.1-0.3-0.1-0.5l-0.1,0.1h0l-0.6,0.8L420.5,340.9L420.5,340.9z"/>
	</g>
	<g>
		<path class="st10" d="M273.4,200.1c1.6,1.1,2.5,2.6,2.5,4.7c0,1.9-0.7,3.9-2.1,6c-0.1,0.2-0.3,0.4-0.6,0.8
			c-0.3,0.4-0.5,0.6-0.5,0.6c-0.1,0.1,0,0.2,0.3,0.4l4.6,3.1c0.4,0.3,0.7,0.4,1,0.3c0.2-0.1,0.7-0.5,1.3-1.1c0.4-0.4,0.7-0.6,1-0.4
			c0.2,0.1,0.3,0.3,0.3,0.4c0,0.1-0.1,0.3-0.4,0.7c-1.1,1.6-2.3,3.3-3.4,5.3c-0.2,0.4-0.5,0.5-0.8,0.3c-0.2-0.1-0.2-0.4,0-0.8
			c0.5-0.9,0.3-1.7-0.5-2.2l-12.3-8.3c-0.8-0.5-1.6-0.4-2.5,0.5c-0.4,0.4-0.7,0.6-0.9,0.4c-0.3-0.2-0.4-0.4-0.3-0.5
			c0-0.1,0.2-0.3,0.4-0.6c0.4-0.4,0.8-0.9,1.3-1.7c0.3-0.4,0.7-1.1,1.4-2.1c0.6-1,1.2-1.9,1.6-2.5c1.3-1.9,2.7-3.1,4.2-3.7
			C270.3,198.9,271.8,199.1,273.4,200.1z M271.9,202.9c-1.5-1-2.8-1.4-3.9-1c-1,0.3-2.1,1.3-3.2,2.9c-0.4,0.7-0.7,1.2-0.6,1.5
			c0,0.3,0.3,0.7,0.9,1.1l6.2,4.1c0.2,0.2,0.8-0.3,1.5-1.5c0.9-1.4,1.3-2.7,1.2-3.9C273.9,204.8,273.2,203.7,271.9,202.9z"/>
		<path class="st10" d="M303.1,191.4c0.1,0.3,0.2,0.4,0.2,0.5c0,0.1-0.1,0.2-0.4,0.3c-1.3,0.8-3,2.3-5,4.4c-0.4,0.4-0.7,0.5-0.9,0.4
			c-0.2-0.2-0.3-0.5-0.1-0.8c0.6-1.1,0.7-1.8,0.4-2.1c-0.1-0.1-0.3-0.2-0.6-0.4c-1.8-0.8-3.3-1.5-4.4-2c-0.5,0.5-1.5,1.4-2.9,2.7
			c-1.2,1.1-2.2,1.9-3.1,2.6c0.3,0.9,0.8,2.2,1.3,3.8c0.1,0.4,0.3,0.7,0.5,0.9c0.4,0.4,0.9,0.5,1.6,0.3c1-0.4,1.6-0.5,1.7-0.3
			c0.2,0.3,0.1,0.6-0.5,1c-1.6,1.2-3,2.5-4,3.8c-0.3,0.4-0.6,0.4-0.9,0.2c-0.2-0.2-0.1-0.6,0.2-1.3c0.4-0.8,0.4-1.8,0-3
			c-1.4-4.6-2.3-7.7-2.8-9.1c-1.1-3.4-2.1-6.1-3.1-8.1c-0.2-0.3,0-0.8,0.3-1.5c0.1-0.2,0.5-0.1,1.1,0.2c5.3,2.5,11.1,5,17.3,7.7
			c1,0.4,2,0.4,3-0.1C302.7,191.2,303,191.2,303.1,191.4z M291.2,191.1c-1.6-0.7-4-1.7-7.3-3.2c-0.2-0.1-0.3-0.1-0.4,0
			c-0.1,0.1-0.1,0.2,0,0.4l2.5,7.4c0.9-0.7,1.9-1.5,2.9-2.5C289.6,192.6,290.3,191.9,291.2,191.1z"/>
		<path class="st10" d="M316.9,168.3c0.1,0.2,0.1,0.3,0.1,0.4c0,0.1-0.1,0.2-0.2,0.3c-0.3,0.2-0.6,0.2-0.9-0.1
			c-1-1.1-1.9-1.7-2.6-1.8c-1.1-0.2-2.6,0.1-4.6,1.1c-0.8,0.4-1.2,0.7-1.2,0.9c0,0.1,0,0.2,0.1,0.3l6.5,14.1c0.3,0.6,0.6,1,1,1.1
			c0.4,0.1,1.1,0.1,2-0.1c0.4-0.1,0.6-0.1,0.7-0.1c0.2,0,0.3,0.2,0.4,0.5c0.1,0.2,0,0.4-0.2,0.5c0,0-0.2,0.1-0.6,0.2
			c-2.7,1-4.8,1.9-6.3,2.9c-0.4,0.2-0.6,0.3-0.8,0.4c-0.1,0-0.2-0.1-0.3-0.3c-0.2-0.3-0.1-0.5,0.2-0.8c0.7-0.6,1.2-1.1,1.3-1.5
			c0.2-0.5,0.1-1.1-0.2-1.8l-6.3-13.7c-0.1-0.3-0.4-0.4-0.7-0.2c0,0-0.3,0.1-0.9,0.4c-1.8,0.8-3.1,1.8-3.6,2.8
			c-0.4,0.8-0.6,1.9-0.6,3.3c0,0.5-0.2,0.7-0.5,0.7c-0.4,0.1-0.6,0-0.6-0.4c-0.1-1.2-0.6-2.7-1.5-4.5c-0.1-0.2,0.2-0.4,0.8-0.7
			c2.2-0.8,4.5-1.8,7-3c4.8-2.2,7.9-3.7,9.2-4.6c0.5-0.3,0.8-0.4,1-0.2C315.3,165.3,316.1,166.7,316.9,168.3z"/>
		<path class="st10" d="M340.9,175.2c-0.1,1.3,0,2.5,0.1,3.8c0,0.2-0.3,0.3-0.9,0.4c-1.6,0.2-3.7,0.6-6.3,1c-2.8,0.5-5.2,1-7.2,1.5
			c-0.4,0.1-0.7,0-0.8-0.4c0-0.3,0.1-0.5,0.6-0.6c0.6-0.2,1-0.4,1.1-0.6c0.2-0.2,0.2-0.7,0.1-1.3l-2.6-14c-0.2-0.9-0.4-1.5-0.6-1.7
			c-0.2-0.2-0.8-0.4-1.6-0.5c-0.5-0.1-0.7-0.3-0.6-0.7c0-0.2,0.1-0.3,0.2-0.4c0.1,0,0.4-0.1,0.8-0.1c0.7,0,2.4-0.3,5.3-0.8
			c2.8-0.5,5.2-1,7.2-1.5c0.7-0.2,1-0.2,1-0.1c0,0.1,0,0.1,0,0.2c0,1,0.1,2.2,0.4,3.5c0.1,0.3-0.1,0.5-0.4,0.6
			c-0.3,0.1-0.5,0-0.7-0.3c-0.4-0.7-0.8-1.1-1-1.3c-0.4-0.3-0.9-0.5-1.6-0.5c-0.5,0-2.3,0.3-5.3,0.9c-0.3,0.1-0.6,0.2-0.6,0.3
			c0,0.1,0,0.2,0,0.5l1.2,6.4c0,0.3,0.2,0.4,0.5,0.3c1-0.2,2.3-0.5,4.1-1c0.3-0.1,0.5-0.3,0.6-0.6c0.1-0.2,0.1-0.7,0.1-1.3
			c0-0.5,0.2-0.7,0.6-0.6c0.4,0,0.5,0.1,0.5,0.4c0,1.4,0.2,3.3,0.7,5.5c0.1,0.2-0.1,0.4-0.4,0.5c-0.3,0.1-0.5,0-0.6-0.4
			c-0.3-0.8-0.5-1.3-0.7-1.5s-0.5-0.3-1-0.3c-0.9,0.1-2.2,0.3-3.9,0.6c-0.2,0-0.3,0.1-0.2,0.3l1.2,6.7c0.2,0.9,0.9,1.4,2,1.4
			c0.3,0,1.3-0.2,3-0.5c2.6-0.5,4.1-1.7,4.4-3.6c0.1-0.4,0.3-0.6,0.7-0.6C340.8,174.7,341,174.9,340.9,175.2z"/>
		<path class="st10" d="M361.1,174.8c-0.3,1.3-0.5,2.6-0.5,3.7c0,0.2-0.3,0.3-1,0.3c-1.7-0.1-3.8-0.1-6.3,0c-2.6,0.1-5,0.1-7.1,0.3
			c-0.3,0-0.5,0-0.6-0.1c-0.1-0.1-0.1-0.2-0.1-0.5c0-0.3,0.2-0.4,0.7-0.5c1-0.1,1.6-0.7,1.5-1.7l-0.3-14.3c0-0.7-0.1-1.3-0.3-1.6
			c-0.3-0.4-0.7-0.7-1.4-0.9c-0.4-0.1-0.6-0.4-0.6-0.7c0-0.2,0.1-0.4,0.2-0.4c0.1,0,0.4,0,0.8,0c1.6,0.1,3.4,0.1,5.6-0.1
			c0.4,0,0.6-0.1,0.7,0c0.2,0,0.3,0.2,0.4,0.4c0,0.3,0,0.5-0.2,0.6c-0.1,0-0.3,0.1-0.7,0.2c-0.7,0.2-1.2,0.4-1.4,0.6
			c-0.2,0.2-0.3,0.7-0.3,1.3l0.3,13.9c0,0.9,0.3,1.5,0.9,1.8c0.6,0.3,1.7,0.4,3.3,0.4c1.5,0,2.6-0.2,3.4-0.6
			c0.7-0.4,1.3-1.1,1.7-2.2c0.2-0.4,0.4-0.6,0.8-0.4C361.1,174.3,361.2,174.5,361.1,174.8z"/>
		<path class="st10" d="M398.4,188.5c-0.1,0.2-0.2,0.4-0.3,0.4c-0.1,0-0.3,0-0.5-0.1c-2.5-1.1-4.6-1.9-6.2-2.3
			c-0.4-0.1-0.6-0.3-0.5-0.5c0-0.3,0.3-0.4,0.9-0.4c0.3,0,0.6-0.2,0.7-0.5c0.1-0.3,0.1-0.7-0.1-1.2c-0.8-1.9-2.3-5.1-4.5-9.6
			l-2.7,6.8c-0.2,0.5,0.2,1.2,1.3,2c0.5,0.4,0.7,0.6,0.6,0.9c-0.1,0.2-0.2,0.4-0.3,0.4c-0.1,0-0.3,0-0.7-0.2
			c-1.7-0.8-3.7-1.5-5.9-2.2c-0.4-0.1-0.6-0.4-0.4-0.7c0.1-0.3,0.4-0.3,0.8-0.2c1,0.3,1.6-0.1,2-1l5.4-13.9c0.4-0.9,0-1.7-0.9-2.3
			c-0.3-0.2-0.5-0.4-0.6-0.5c-0.1-0.1-0.1-0.2,0-0.4c0.1-0.2,0.2-0.4,0.3-0.4c0.1,0,0.4,0,0.8,0.2c2.4,1.1,4.4,1.9,5.9,2.3
			c0.4,0.1,0.6,0.4,0.4,0.8c-0.1,0.2-0.3,0.2-0.8,0.2c-0.8-0.1-1.3-0.2-1.5-0.1c-0.4,0.1-0.7,0.4-0.9,1l-2.5,6.3
			c3.7-1.2,6.7-2.2,9-3c0.7-0.2,1.1-0.5,1.2-0.9c0.2-0.4,0-0.8-0.5-1.2c-0.3-0.2-0.4-0.4-0.4-0.4c-0.1-0.1-0.1-0.3,0-0.5
			c0.1-0.2,0.2-0.3,0.3-0.3c0.1,0,0.3,0.1,0.7,0.3c1.8,0.9,3.6,1.7,5.3,2.1c0.3,0.1,0.4,0.2,0.5,0.2s0.1,0.2,0,0.5
			c0,0.2-0.1,0.3-0.2,0.4c-0.1,0-0.4,0-0.8,0c-1-0.1-2.5,0.2-4.4,0.7c-1.4,0.4-4.3,1.3-8.7,2.8c2.3,4.8,4.2,8.5,5.5,11.1
			c0.6,1.1,1.3,2,2.2,2.6C398.3,188,398.5,188.3,398.4,188.5z"/>
		<path class="st10" d="M419.3,205.3c-0.2,0.2-0.4,0.3-0.5,0.2c-0.1,0-0.2-0.1-0.3-0.3c-1-1.2-2.7-2.6-5.1-4.3
			c-0.5-0.3-0.6-0.6-0.5-0.8c0.1-0.3,0.4-0.3,0.8-0.2c1.2,0.4,1.9,0.4,2.1,0.1c0.1-0.1,0.2-0.3,0.3-0.6c0.6-1.9,1-3.5,1.3-4.7
			c-0.6-0.5-1.6-1.3-3.1-2.5c-1.2-1-2.2-1.9-3-2.7c-0.9,0.4-2.1,1.1-3.6,1.9c-0.3,0.2-0.6,0.4-0.8,0.6c-0.4,0.4-0.4,1-0.1,1.6
			c0.5,1,0.7,1.5,0.5,1.7c-0.2,0.3-0.6,0.1-1-0.3c-1.4-1.4-2.9-2.6-4.4-3.4c-0.4-0.2-0.5-0.5-0.3-0.8c0.1-0.2,0.6-0.2,1.4,0
			c0.8,0.3,1.8,0.1,3-0.4c4.4-2,7.3-3.4,8.6-4.1c3.2-1.6,5.8-3,7.6-4.2c0.3-0.2,0.8-0.2,1.5,0.1c0.2,0.1,0.2,0.4,0,1.1
			c-1.7,5.6-3.4,11.7-5.1,18.2c-0.3,1-0.1,2,0.5,3C419.5,204.8,419.5,205.1,419.3,205.3z M417.9,193.4c0.5-1.6,1.1-4.2,2.1-7.7
			c0-0.2,0-0.3-0.1-0.4c-0.1-0.1-0.2-0.1-0.4,0l-6.9,3.5c0.8,0.8,1.8,1.6,2.9,2.6C416.2,192.1,417,192.7,417.9,193.4z"/>
		<path class="st10" d="M447.9,211.3c-0.3,0.2-0.7,0.1-1.3-0.3c-0.6-0.5-1.7-0.8-3.2-0.8c-3-0.1-4.9-0.2-5.6-0.2c-1.8,0-3.4,0-5,0.1
			l-4.4,3.2c-0.6,0.4-0.9,0.8-1,1.2c0,0.3,0.1,0.9,0.5,1.7c0.3,0.6,0.2,1-0.1,1.1c-0.2,0.1-0.4,0.1-0.5-0.1c0,0-0.1-0.2-0.3-0.6
			c-1.1-1.8-2.3-3.5-3.7-5.1c-0.5-0.4-0.6-0.8-0.3-1.1c0.2-0.3,0.5-0.2,0.9,0.1c0.7,0.6,1.3,0.9,1.7,0.9c0.4,0,1-0.2,1.6-0.7
			l3.4-2.5c1.4-2.8,2.6-6.7,3.7-11.7c0.3-1.3,0.2-2.3-0.1-3.1c-0.2-0.5-0.3-0.8-0.1-0.9c0.4-0.3,0.7-0.2,0.9,0.2
			c1,1.7,2.4,3.5,4.4,5.5c0.3,0.3,0.4,0.5,0.5,0.5c0.1,0.2,0,0.3-0.3,0.5c-0.2,0.1-0.5,0-1-0.3c-0.8-0.5-1.4-0.7-1.7-0.5
			c-0.2,0.1-0.3,0.4-0.4,0.7c-0.6,2.1-1.6,5-3,8.8c-0.1,0.2-0.1,0.3,0,0.4c0,0.1,0.2,0.1,0.4,0.1c0.8,0,2.2,0,4.1,0s3.4,0,4.4-0.1
			c0.5,0,0.8-0.1,1.1-0.3c0.4-0.3,0.5-1,0.2-1.9c-0.2-0.5-0.1-0.9,0.2-1c0.3-0.2,0.6,0,1,0.6c1,1.8,2.1,3.4,3.3,4.6
			C448.2,210.8,448.2,211.1,447.9,211.3z"/>
	</g>
</g>
<g>
	<path class="st9" d="M332.3,255.5c4.4-2.1,7.8-5.1,10.4-8.8c0.6-1,1.3-1.9,1.7-2.9c0.3-0.5,0.6-1,0.8-1.5c0.2-0.5,0.5-1,0.7-1.6
		c0.3-0.5,0.4-1.1,0.7-1.6l0.7-1.6c0.4-1.1,0.7-2.3,1.3-3.4c0.1,1.2,0.2,2.5,0.2,3.7c-0.2,1.2-0.2,2.5-0.5,3.7
		c-0.3,1.2-0.6,2.4-1.2,3.6c-0.5,1.2-1.2,2.3-1.9,3.4c-1.5,2.1-3.4,3.9-5.7,5.1C337.3,254.9,334.8,255.7,332.3,255.5z"/>
</g>
</svg>
